<svg xmlns="http://www.w3.org/2000/svg" ed:vSpacing="30" ed:name="页面-1" ed:hSpacing="30" xmlns:ed="https://www.edrawsoft.cn/xml/2017/SVGExtensions/" id="page300000100" width="1646" height="752" viewBox="0 0 1646 752" xmlns:ev="http://www.w3.org/2001/xml-events" xmlns:xlink="http://www.w3.org/1999/xlink"><style type="text/css"><![CDATA[
g[ed\:togtopicid],g[ed\:hyperlink],g[ed\:comment],g[ed\:note] {cursor:pointer;}
g[id] {-moz-user-select: none;-ms-user-select: none;user-select: none;}
svg text::selection,svg tspan::selection{background-color: #4285f4;color: #ffffff;fill: #ffffff;}
.st19 {fill:#000000;font-family:微软雅黑;font-size:10pt}
.st20 {fill:#000000;font-family:微软雅黑;font-size:18pt;font-weight:bold}
.st22 {fill:#303030;font-family:微软雅黑;font-size:14pt;font-weight:bold}
.st16 {fill:#454545;font-family:微软雅黑;font-size:10pt}
.st18 {fill:#646464;font-family:微软雅黑;font-size:8pt}
.st23 {fill:#ffffff;font-family:微软雅黑;font-size:12pt;font-weight:bold}
.st17 {fill:#ffffff;font-family:微软雅黑;font-size:18pt;font-weight:bold}
.st21 {fill:#ffffff}
]]></style><defs/><rect y="0" x="0" width="1646" fill="#ffffff" height="752"/><g transform="matrix(1,0,0,1,1097.81,330.07)" id="166" ed:type="relation" ed:fromid="161" ed:toid="104"><path fill="none" d="M-290.8,54.4C-222.7,53.3,222.7,-53.3,290.8,-54.4"/><path stroke-width="2" stroke-linecap="round" fill="none" stroke-dasharray="3,3" d="M-290.8,54.4C-225,53.4,192.7,-46.2,282.5,-53.9" stroke="#53a2f0" stroke-linejoin="round"/><path stroke-width="1" stroke-linecap="round" fill="#53a2f0" d="M290.8,-54.4L280.7,-59.5C281.7,-57.9,282.4,-56,282.5,-53.9C282.6,-51.9,282.2,-49.9,281.3,-48.2L290.8,-54.4" stroke="#53a2f0"/></g><g transform="matrix(1,0,0,1,1133.41,355.49)" id="167" ed:type="relation" ed:fromid="161" ed:toid="106"><path fill="none" d="M-326.4,36.3C-241.8,50.4,241.8,-50.4,326.4,-36.3"/><path stroke-width="2" stroke-linecap="round" fill="none" stroke-dasharray="3,3" d="M-326.4,36.3C-244.2,50,214.4,-44.7,318.2,-37.2" stroke="#53a2f0" stroke-linejoin="round"/><path stroke-width="1" stroke-linecap="round" fill="#53a2f0" d="M326.4,-36.3L317.3,-43C318.1,-41.2,318.4,-39.3,318.2,-37.2C317.9,-35.2,317.2,-33.3,316,-31.8L326.4,-36.3" stroke="#53a2f0"/></g><g transform="matrix(1,0,0,1,1150.01,383.82)" id="168" ed:type="relation" ed:fromid="161" ed:toid="110"><path fill="none" d="M-349,13.5C-253.3,47.8,253.3,-47.8,349,-13.5"/><path stroke-width="2" stroke-linecap="round" fill="none" stroke-dasharray="3,3" d="M-349,13.5C-255.7,46.9,228.2,-43.1,341.1,-15.8" stroke="#53a2f0" stroke-linejoin="round"/><path stroke-width="1" stroke-linecap="round" fill="#53a2f0" d="M349,-13.5L341.2,-21.7C341.7,-19.8,341.6,-17.8,341.1,-15.8C340.5,-13.8,339.4,-12.1,338,-10.8L349,-13.5" stroke="#53a2f0"/></g><g transform="matrix(1,0,0,1,1135.21,410.9)" id="169" ed:type="relation" ed:fromid="161" ed:toid="114"><path fill="none" d="M-347,-13.6C-259.8,36.4,259.8,-36.4,347,13.6"/><path stroke-width="2" stroke-linecap="round" fill="none" stroke-dasharray="3,3" d="M-347,-13.6C-262.1,35.1,233.7,-32.7,339.5,10" stroke="#53a2f0" stroke-linejoin="round"/><path stroke-width="1" stroke-linecap="round" fill="#53a2f0" d="M347,13.6L340.6,4.3C340.8,6.2,340.4,8.2,339.5,10C338.6,11.9,337.3,13.4,335.7,14.5L347,13.6" stroke="#53a2f0"/></g><g transform="matrix(1,0,0,1,1158.61,303.37)" id="170" ed:type="relation" ed:fromid="161" ed:toid="125"><path fill="none" d="M-351.6,82.1C-252,83.1,113.1,-72.9,351.6,-82.1"/><path stroke-width="2" stroke-linecap="round" fill="none" stroke-dasharray="3,3" d="M-351.6,82.1C-253.2,83.1,104.8,-69.4,343.3,-81.7" stroke="#53a2f0" stroke-linejoin="round"/><path stroke-width="1" stroke-linecap="round" fill="#53a2f0" d="M351.6,-82.1L341.5,-87.3C342.6,-85.7,343.2,-83.8,343.3,-81.7C343.4,-79.7,342.9,-77.7,342.1,-76L351.6,-82.1" stroke="#53a2f0"/><rect y="-5" x="-167.2" width="313.2" fill="#ffffff" height="18.4"/><text class="st16"><tspan textLength="295" y="8.603" x="-209" style="white-space:pre">/var/lib/kubelet/device-plugins/contiv-vpp.sock</tspan></text></g><g transform="matrix(1,0,0,1,1127.87,219.87)" id="171" ed:type="relation" ed:fromid="123" ed:toid="157"><path fill="none" d="M326.5,-66.1C241.1,-87.1,-241.1,87.1,-326.5,66.1"/><path stroke-width="2" stroke-linecap="round" fill="none" stroke-dasharray="3,3" d="M326.5,-66.1C243.5,-86.5,-214.2,77.4,-318.3,67.4" stroke="#92d050" stroke-linejoin="round"/><path stroke-width="1" stroke-linecap="round" fill="#92d050" d="M-326.5,66.1L-317.7,73.3C-318.4,71.5,-318.6,69.5,-318.3,67.4C-317.9,65.4,-317.1,63.6,-315.9,62.1L-326.5,66.1" stroke="#92d050"/><rect y="-8.8" x="-116.9" width="291.6" fill="#ffffff" height="18.4"/><text class="st16"><tspan textLength="273" y="4.8" x="-146" style="white-space:pre">/var/lib/kubelet/device-plugins/kubelet.sock</tspan></text></g><g transform="matrix(1,0,0,1,1112.21,246.66)" id="172" ed:type="relation" ed:fromid="123" ed:toid="159"><path fill="none" d="M325.2,-87.3C237.1,-95.9,-237.1,95.9,-325.2,87.3"/><path stroke-width="2" stroke-linecap="round" fill="none" stroke-dasharray="3,3" d="M325.2,-87.3C239.6,-95.7,-210.9,85.4,-316.9,87.5" stroke="#92d050" stroke-linejoin="round"/><path stroke-width="1" stroke-linecap="round" fill="#92d050" d="M-325.2,87.3L-315.6,93.2C-316.5,91.5,-317,89.6,-316.9,87.5C-316.8,85.5,-316.2,83.5,-315.2,81.9L-325.2,87.3" stroke="#92d050"/></g><g transform="matrix(1,0,0,1,372.88,186.93)" id="191" ed:type="relation" ed:fromid="101" ed:toid="176"><path fill="none" d="M-1.7,-103.9C-20.8,-40.8,20.8,40.8,1.7,103.9"/><path stroke-width="2" stroke-linecap="round" fill="none" stroke-dasharray="3,3" d="M-1.7,-103.9C-20,-43.4,17.5,34,3.8,95.9" stroke="#173679" stroke-linejoin="round"/><path stroke-width="1" stroke-linecap="round" fill="#173679" d="M1.7,103.9L9.6,95.9C7.8,96.4,5.8,96.4,3.8,95.9C1.8,95.4,0.1,94.4,-1.3,93L1.7,103.9" stroke="#173679"/><rect y="-18" x="-105.7" width="263.6" fill="#ffffff" height="18.4"/><rect y="0.4" x="-33.7" width="118.8" fill="#ffffff" height="18.4"/><text class="st16"><tspan textLength="252" y="-4.4" x="-132" style="white-space:pre">defaultNodeStatusFuncs生成的setter函数</tspan><tspan textLength="112" y="14" x="-60" style="white-space:pre">获取Node（资源）</tspan></text></g><g transform="matrix(1,0,0,1,229.32,340.15)" id="207" ed:type="relation" ed:fromid="176" ed:toid="206"><path fill="none" d="M97.9,-25.5C17.5,-16.7,-17.5,16.7,-97.9,25.5"/><path stroke-width="2" stroke-linecap="round" fill="none" stroke-dasharray="3,3" d="M97.9,-25.5C20.3,-17,-15,14.4,-89.7,24.4" stroke="#53a2f0" stroke-linejoin="round"/><path stroke-width="1" stroke-linecap="round" fill="#53a2f0" d="M-97.9,25.5L-87.5,29.9C-88.7,28.3,-89.4,26.5,-89.7,24.4C-89.9,22.4,-89.6,20.4,-88.9,18.7L-97.9,25.5" stroke="#53a2f0"/><rect y="-8.8" x="-11.3" width="27.6" fill="#ffffff" height="18.4"/><text class="st16"><tspan textLength="26" y="4.8" x="-14" style="white-space:pre">发送</tspan></text></g><path transform="matrix(1,0,0,1,1579.84,209.13)" id="105" stroke-linecap="round" fill="none" d="M9.5,-65.1L9.5,59.1C9.5,62.4,6.8,65.1,3.5,65.1L-9.4,65.1" ed:parentid="142" ed:tosuperid="104" stroke="#454545" stroke-linejoin="round"/><path transform="matrix(1,0,0,1,1579.84,236.2)" id="107" stroke-linecap="round" fill="none" d="M9.5,-92.2L9.5,86.2C9.5,89.5,6.8,92.2,3.5,92.2L-9.5,92.2" ed:parentid="142" ed:tosuperid="106" stroke="#454545" stroke-linejoin="round"/><path transform="matrix(1,0,0,1,1579.84,263.28)" id="111" stroke-linecap="round" fill="none" d="M9.5,-119.3L9.5,113.3C9.5,116.6,6.8,119.3,3.5,119.3L-9.5,119.3" ed:parentid="142" ed:tosuperid="110" stroke="#454545" stroke-linejoin="round"/><path transform="matrix(1,0,0,1,1579.84,290.35)" id="115" stroke-linecap="round" fill="none" d="M9.5,-146.3L9.5,140.4C9.5,143.7,6.8,146.4,3.5,146.4L-9.4,146.4" ed:parentid="142" ed:tosuperid="114" stroke="#454545" stroke-linejoin="round"/><path transform="matrix(1,0,0,1,1579.84,154.98)" id="124" stroke-linecap="round" fill="none" d="M9.5,-11L9.5,5C9.5,8.3,6.8,11,3.5,11L-9.4,11" ed:parentid="142" ed:tosuperid="123" stroke="#454545" stroke-linejoin="round"/><path transform="matrix(1,0,0,1,1579.84,182.05)" id="126" stroke-linecap="round" fill="none" d="M9.5,-38L9.5,32C9.5,35.4,6.8,38,3.5,38L-9.4,38" ed:parentid="142" ed:tosuperid="125" stroke="#454545" stroke-linejoin="round"/><path transform="matrix(1,0,0,1,555.67,93.38)" id="149" stroke-linecap="round" fill="none" d="M-9.4,-21L-9.4,15C-9.4,18.3,-6.8,21,-3.4,21L9.5,21" ed:parentid="145" ed:tosuperid="148" stroke="#454545" stroke-linejoin="round"/><path transform="matrix(1,0,0,1,609.57,147.52)" id="152" stroke-linecap="round" fill="none" d="M-9.5,-21L-9.5,15C-9.5,18.3,-6.8,21,-3.5,21L9.5,21" ed:parentid="148" ed:tosuperid="151" stroke="#454545" stroke-linejoin="round"/><path transform="matrix(1,0,0,1,663.47,201.67)" id="154" stroke-linecap="round" fill="none" d="M-9.5,-21L-9.5,15C-9.5,18.3,-6.8,21,-3.5,21L9.5,21" ed:parentid="151" ed:tosuperid="153" stroke="#454545" stroke-linejoin="round"/><path transform="matrix(1,0,0,1,717.37,255.83)" id="158" stroke-linecap="round" fill="none" d="M-9.5,-21L-9.5,15C-9.5,18.3,-6.8,21,-3.5,21L9.5,21" ed:parentid="153" ed:tosuperid="157" stroke="#454545" stroke-linejoin="round"/><path transform="matrix(1,0,0,1,717.37,282.9)" id="160" stroke-linecap="round" fill="none" d="M-9.5,-48L-9.5,42C-9.5,45.4,-6.8,48,-3.5,48L9.5,48" ed:parentid="153" ed:tosuperid="159" stroke="#454545" stroke-linejoin="round"/><path transform="matrix(1,0,0,1,717.37,309.97)" id="162" stroke-linecap="round" fill="none" d="M-9.5,-75.1L-9.5,69.1C-9.5,72.4,-6.8,75.1,-3.5,75.1L9.5,75.1" ed:parentid="153" ed:tosuperid="161" stroke="#454545" stroke-linejoin="round"/><path stroke-width="2" transform="matrix(1,0,0,1,445.97,51.5)" id="175" stroke-linecap="round" fill="none" d="M2.3,0L33.8,0C33.8,0,36.4,0,39.8,0L65.3,0" ed:parentid="101" ed:tosuperid="145" stroke="#454545" stroke-linejoin="round"/><path transform="matrix(1,0,0,1,371.67,350.44)" id="178" stroke-linecap="round" fill="none" d="M-9.5,-21L-9.5,15C-9.5,18.3,-6.8,21,-3.5,21L9.5,21" ed:parentid="176" ed:tosuperid="177" stroke="#454545" stroke-linejoin="round"/><path transform="matrix(1,0,0,1,419.87,404.59)" id="180" stroke-linecap="round" fill="none" d="M-9.5,-21L-9.5,15C-9.5,18.3,-6.8,21,-3.5,21L9.5,21" ed:parentid="177" ed:tosuperid="179" stroke="#454545" stroke-linejoin="round"/><path transform="matrix(1,0,0,1,419.87,485.82)" id="182" stroke-linecap="round" fill="none" d="M-9.5,-102.2L-9.5,96.2C-9.5,99.5,-6.8,102.2,-3.5,102.2L9.5,102.2" ed:parentid="177" ed:tosuperid="181" stroke="#454545" stroke-linejoin="round"/><path transform="matrix(1,0,0,1,473.77,458.74)" id="184" stroke-linecap="round" fill="none" d="M-9.4,-21L-9.4,15C-9.4,18.3,-6.8,21,-3.4,21L9.4,21" ed:parentid="179" ed:tosuperid="183" stroke="#454545" stroke-linejoin="round"/><path transform="matrix(1,0,0,1,473.77,485.82)" id="186" stroke-linecap="round" fill="none" d="M-9.4,-48L-9.4,42C-9.4,45.4,-6.8,48,-3.4,48L9.4,48" ed:parentid="179" ed:tosuperid="185" stroke="#454545" stroke-linejoin="round"/><path transform="matrix(1,0,0,1,473.77,621.19)" id="188" stroke-linecap="round" fill="none" d="M-9.4,-21L-9.4,15C-9.4,18.3,-6.8,21,-3.4,21L9.4,21" ed:parentid="181" ed:tosuperid="187" stroke="#454545" stroke-linejoin="round"/><path transform="matrix(1,0,0,1,473.77,648.27)" id="190" stroke-linecap="round" fill="none" d="M-9.4,-48L-9.4,42.1C-9.4,45.4,-6.8,48.1,-3.4,48.1L9.4,48.1" ed:parentid="181" ed:tosuperid="189" stroke="#454545" stroke-linejoin="round"/><g transform="matrix(1,0,0,1,313.22,20)" ed:width="135" ed:height="63" id="101" ed:topictype="mainidea" ed:layout="rightmap"><path stroke-width="2" fill="#173679" d="M4,0L131,0C133.7,0,135,1.3,135,4L135,59C135,61.7,133.7,63,131,63L4,63C1.3,63,0,61.7,0,59L0,4C0,1.3,1.3,0,4,0z" stroke="#173679" stroke-linejoin="round"/><text class="st17"><tspan textLength="94" y="40.15" x="20" style="white-space:pre">Kubelet</tspan></text><g><path stroke-width="0.8" fill="#ffffff" d="M0,64L52,64L52,84L0,84L0,64z" stroke="#c8c8c8"/><text class="st18"><tspan y="78" x="4">go: 类型</tspan></text></g></g><g transform="matrix(1,0,0,1,1388.59,262.05)" ed:width="181.8" ed:height="24.4" id="104" ed:parentid="142"><path fill="#d1e0f9" d="M4,0L177.8,0C180.5,0,181.8,1.3,181.8,4L181.8,20.4C181.8,23.1,180.5,24.4,177.8,24.4L4,24.4C1.3,24.4,0,23.1,0,20.4L0,4C0,1.3,1.3,0,4,0z" stroke="#454545" stroke-linejoin="round"/><text class="st19"><tspan textLength="150" y="16.45" x="9" style="white-space:pre">GetDevicePluginOptions</tspan></text><g><path stroke-width="0.8" fill="#ffffff" d="M129.8,24.9L181.8,24.9L181.8,44.9L129.8,44.9L129.8,24.9z" stroke="#c8c8c8"/><text class="st18"><tspan y="38.9" x="133.8">go: 函数</tspan></text></g></g><g transform="matrix(1,0,0,1,1459.79,316.2)" ed:width="110.6" ed:height="24.4" id="106" ed:parentid="142"><path fill="#d1e0f9" d="M4,0L106.6,0C109.3,0,110.6,1.3,110.6,4L110.6,20.4C110.6,23.1,109.3,24.4,106.6,24.4L4,24.4C1.3,24.4,0,23.1,0,20.4L0,4C0,1.3,1.3,0,4,0z" stroke="#454545" stroke-linejoin="round"/><text class="st19"><tspan textLength="86" y="16.45" x="9" style="white-space:pre">ListAndWatch</tspan></text><g><path stroke-width="0.8" fill="#ffffff" d="M58.6,24.9L110.6,24.9L110.6,44.9L58.6,44.9L58.6,24.9z" stroke="#c8c8c8"/><text class="st18"><tspan y="38.9" x="62.59999999999999">go: 函数</tspan></text></g></g><g transform="matrix(1,0,0,1,1495.79,370.35)" ed:width="74.59999999999999" ed:height="24.4" id="110" ed:parentid="142"><path fill="#d1e0f9" d="M4,0L70.6,0C73.3,0,74.6,1.3,74.6,4L74.6,20.4C74.6,23.1,73.3,24.4,70.6,24.4L4,24.4C1.3,24.4,0,23.1,0,20.4L0,4C0,1.3,1.3,0,4,0z" stroke="#454545" stroke-linejoin="round"/><text class="st19"><tspan textLength="49" y="16.45" x="9" style="white-space:pre">Allocate</tspan></text><g><path stroke-width="0.8" fill="#ffffff" d="M22.6,24.9L74.6,24.9L74.6,44.9L22.6,44.9L22.6,24.9z" stroke="#c8c8c8"/><text class="st18"><tspan y="38.9" x="26.59999999999999">go: 函数</tspan></text></g></g><g transform="matrix(1,0,0,1,1436.59,424.5)" ed:width="133.8" ed:height="24.4" id="114" ed:parentid="142"><path fill="#d1e0f9" d="M4,0L129.8,0C132.5,0,133.8,1.3,133.8,4L133.8,20.4C133.8,23.1,132.5,24.4,129.8,24.4L4,24.4C1.3,24.4,0,23.1,0,20.4L0,4C0,1.3,1.3,0,4,0z" stroke="#454545" stroke-linejoin="round"/><text class="st19"><tspan textLength="110" y="16.45" x="9" style="white-space:pre">PreStartContainer</tspan></text><g><path stroke-width="0.8" fill="#ffffff" d="M81.8,24.9L133.8,24.9L133.8,44.9L81.8,44.9L81.8,24.9z" stroke="#c8c8c8"/><text class="st18"><tspan y="38.9" x="85.80000000000001">go: 函数</tspan></text></g></g><g transform="matrix(1,0,0,1,1437.39,153.75)" ed:width="133" ed:height="24.4" id="123" ed:parentid="142"><path fill="#fed9ad" d="M4,0L129,0C131.7,0,133,1.3,133,4L133,20.4C133,23.1,131.7,24.4,129,24.4L4,24.4C1.3,24.4,0,23.1,0,20.4L0,4C0,1.3,1.3,0,4,0z" stroke="#454545" stroke-linejoin="round"/><text class="st19"><tspan textLength="105" y="16.45" x="9" style="white-space:pre">registrationClient</tspan></text><g><path stroke-width="0.8" fill="#ffffff" d="M81,24.9L133,24.9L133,44.9L81,44.9L81,24.9z" stroke="#c8c8c8"/><text class="st18"><tspan y="38.9" x="85">go: 成员</tspan></text></g></g><g transform="matrix(1,0,0,1,1510.19,207.9)" ed:width="60.2" ed:height="24.4" id="125" ed:parentid="142"><path fill="#fed9ad" d="M4,0L56.2,0C58.9,0,60.2,1.3,60.2,4L60.2,20.4C60.2,23.1,58.9,24.4,56.2,24.4L4,24.4C1.3,24.4,0,23.1,0,20.4L0,4C0,1.3,1.3,0,4,0z" stroke="#454545" stroke-linejoin="round"/><text class="st19"><tspan textLength="37" y="16.45" x="9" style="white-space:pre">server</tspan></text><g><path stroke-width="0.8" fill="#ffffff" d="M8.2,24.9L60.2,24.9L60.2,44.9L8.2,44.9L8.2,24.9z" stroke="#c8c8c8"/><text class="st18"><tspan y="38.9" x="12.2">go: 成员</tspan></text></g></g><g transform="matrix(1,0,0,1,1428.49,95)" ed:width="195.8" ed:height="49" id="142" ed:topictype="floating" ed:layout="lefttree"><path stroke-width="2" fill="#53a2f0" d="M4,0L191.8,0C194.5,0,195.8,1.3,195.8,4L195.8,45C195.8,47.7,194.5,49,191.8,49L4,49C1.3,49,0,47.7,0,45L0,4C0,1.3,1.3,0,4,0z" stroke="#53a2f0" stroke-linejoin="round"/><text class="st20"><tspan textLength="158" y="33.15" x="18" class="st21" style="white-space:pre">DevicePlugin</tspan></text></g><g transform="matrix(1,0,0,1,511.22,30.6)" ed:width="209.4" ed:height="41.8" id="145" ed:parentid="101" ed:layout="righttree"><path stroke-width="2" fill="#fed9ad" d="M4,0L205.4,0C208.1,0,209.4,1.3,209.4,4L209.4,37.8C209.4,40.5,208.1,41.8,205.4,41.8L4,41.8C1.3,41.8,0,40.5,0,37.8L0,4C0,1.3,1.3,0,4,0z" stroke="#454545" stroke-linejoin="round"/><text class="st22"><tspan textLength="176" y="27.55" x="18" style="white-space:pre">containerManager</tspan></text><g><path stroke-width="0.8" fill="#ffffff" d="M0,42.8L52,42.8L52,62.8L0,62.8L0,42.8z" stroke="#c8c8c8"/><text class="st18"><tspan y="56.8" x="4">go: 成员</tspan></text></g></g><g transform="matrix(1,0,0,1,565.12,102.15)" ed:width="169" ed:height="24.4" id="148" ed:parentid="145" ed:layout="righttree"><path fill="none" stroke-dasharray="6,4" d="M4,0L165,0C167.7,0,169,1.3,169,4L169,20.4C169,23.1,167.7,24.4,165,24.4L4,24.4C1.3,24.4,0,23.1,0,20.4L0,4C0,1.3,1.3,0,4,0z" stroke="#488ed3" stroke-linejoin="round"/><text class="st19"><tspan textLength="140" y="16.45" x="9" style="white-space:pre">containerManagerImpl</tspan></text><g><path stroke-width="0.8" fill="#ffffff" d="M0,24.9L52,24.9L52,44.9L0,44.9L0,24.9z" stroke="#c8c8c8"/><text class="st18"><tspan y="38.9" x="4">go: 接口</tspan></text></g></g><g transform="matrix(1,0,0,1,619.02,156.3)" ed:width="121.8" ed:height="24.4" id="151" ed:parentid="148" ed:layout="righttree"><path fill="#fed9ad" d="M4,0L117.8,0C120.5,0,121.8,1.3,121.8,4L121.8,20.4C121.8,23.1,120.5,24.4,117.8,24.4L4,24.4C1.3,24.4,0,23.1,0,20.4L0,4C0,1.3,1.3,0,4,0z" stroke="#454545" stroke-linejoin="round"/><text class="st19"><tspan textLength="94" y="16.45" x="9" style="white-space:pre">deviceManager</tspan></text><g><path stroke-width="0.8" fill="#ffffff" d="M0,24.9L52,24.9L52,44.9L0,44.9L0,24.9z" stroke="#c8c8c8"/><text class="st18"><tspan y="38.9" x="4">go: 成员</tspan></text></g></g><g transform="matrix(1,0,0,1,672.92,210.45)" ed:width="151.4" ed:height="24.4" id="153" ed:parentid="151" ed:layout="righttree"><path fill="none" stroke-dasharray="6,4" d="M4,0L147.4,0C150.1,0,151.4,1.3,151.4,4L151.4,20.4C151.4,23.1,150.1,24.4,147.4,24.4L4,24.4C1.3,24.4,0,23.1,0,20.4L0,4C0,1.3,1.3,0,4,0z" stroke="#488ed3" stroke-linejoin="round"/><text class="st19"><tspan textLength="121" y="16.45" x="9" style="white-space:pre">deviceManagerImpl</tspan></text><g><path stroke-width="0.8" fill="#ffffff" d="M0,24.9L52,24.9L52,44.9L0,44.9L0,24.9z" stroke="#c8c8c8"/><text class="st18"><tspan y="38.9" x="4">go: 接口</tspan></text></g></g><g transform="matrix(1,0,0,1,726.82,264.6)" ed:width="74.59999999999999" ed:height="24.4" id="157" ed:parentid="153" ed:layout="righttree"><path fill="#92d050" d="M4,0L70.6,0C73.3,0,74.6,1.3,74.6,4L74.6,20.4C74.6,23.1,73.3,24.4,70.6,24.4L4,24.4C1.3,24.4,0,23.1,0,20.4L0,4C0,1.3,1.3,0,4,0z" stroke="#454545" stroke-linejoin="round"/><text class="st19"><tspan textLength="49" y="16.45" x="9" style="white-space:pre">Register</tspan></text><g><path stroke-width="0.8" fill="#ffffff" d="M0,24.9L52,24.9L52,44.9L0,44.9L0,24.9z" stroke="#c8c8c8"/><text class="st18"><tspan y="38.9" x="4">go: 函数</tspan></text></g></g><g transform="matrix(1,0,0,1,726.82,318.75)" ed:width="60.2" ed:height="24.4" id="159" ed:parentid="153" ed:layout="righttree"><path fill="#fed9ad" d="M4,0L56.2,0C58.9,0,60.2,1.3,60.2,4L60.2,20.4C60.2,23.1,58.9,24.4,56.2,24.4L4,24.4C1.3,24.4,0,23.1,0,20.4L0,4C0,1.3,1.3,0,4,0z" stroke="#454545" stroke-linejoin="round"/><text class="st19"><tspan textLength="37" y="16.45" x="9" style="white-space:pre">server</tspan></text><g><path stroke-width="0.8" fill="#ffffff" d="M0,24.9L52,24.9L52,44.9L0,44.9L0,24.9z" stroke="#c8c8c8"/><text class="st18"><tspan y="38.9" x="4">go: 成员</tspan></text></g></g><g transform="matrix(1,0,0,1,726.82,372.9)" ed:width="80.2" ed:height="24.4" id="161" ed:parentid="153" ed:layout="righttree"><path fill="#fed9ad" d="M4,0L76.2,0C78.9,0,80.2,1.3,80.2,4L80.2,20.4C80.2,23.1,78.9,24.4,76.2,24.4L4,24.4C1.3,24.4,0,23.1,0,20.4L0,4C0,1.3,1.3,0,4,0z" stroke="#454545" stroke-linejoin="round"/><text class="st19"><tspan textLength="55" y="16.45" x="9" style="white-space:pre">endpoint</tspan></text><g><path stroke-width="0.8" fill="#ffffff" d="M0,24.9L52,24.9L52,44.9L0,44.9L0,24.9z" stroke="#c8c8c8"/><text class="st18"><tspan y="38.9" x="4">go: 成员</tspan></text></g></g><g transform="matrix(1,0,0,1,327.22,290.87)" ed:width="83" ed:height="38.6" id="176" ed:topictype="floating" ed:layout="righttree"><path stroke-width="2" fill="#173679" d="M4,0L79,0C81.7,0,83,1.3,83,4L83,34.6C83,37.3,81.7,38.6,79,38.6L4,38.6C1.3,38.6,0,37.3,0,34.6L0,4C0,1.3,1.3,0,4,0z" stroke="#53a2f0" stroke-linejoin="round"/><text class="st23"><tspan textLength="45" y="24.35" x="18" style="white-space:pre">Node</tspan></text><g><path stroke-width="0.8" fill="#ffffff" d="M0,39.6L52,39.6L52,59.6L0,59.6L0,39.6z" stroke="#c8c8c8"/><text class="st18"><tspan y="53.6" x="4">go: 类型</tspan></text></g></g><g transform="matrix(1,0,0,1,381.12,359.22)" ed:width="58.6" ed:height="24.4" id="177" ed:parentid="176"><path fill="#fed9ad" d="M4,0L54.6,0C57.3,0,58.6,1.3,58.6,4L58.6,20.4C58.6,23.1,57.3,24.4,54.6,24.4L4,24.4C1.3,24.4,0,23.1,0,20.4L0,4C0,1.3,1.3,0,4,0z" stroke="#454545" stroke-linejoin="round"/><text class="st19"><tspan textLength="37" y="16.45" x="9" style="white-space:pre">status</tspan></text><g><path stroke-width="0.8" fill="#ffffff" d="M0,24.9L52,24.9L52,44.9L0,44.9L0,24.9z" stroke="#c8c8c8"/><text class="st18"><tspan y="38.9" x="4">go: 成员</tspan></text></g></g><g transform="matrix(1,0,0,1,429.32,413.37)" ed:width="76.2" ed:height="24.4" id="179" ed:parentid="177"><path fill="#fed9ad" d="M4,0L72.2,0C74.9,0,76.2,1.3,76.2,4L76.2,20.4C76.2,23.1,74.9,24.4,72.2,24.4L4,24.4C1.3,24.4,0,23.1,0,20.4L0,4C0,1.3,1.3,0,4,0z" stroke="#454545" stroke-linejoin="round"/><text class="st19"><tspan textLength="53" y="16.45" x="9" style="white-space:pre">Capacity</tspan></text><g><path stroke-width="0.8" fill="#ffffff" d="M0,24.9L52,24.9L52,44.9L0,44.9L0,24.9z" stroke="#c8c8c8"/><text class="st18"><tspan y="38.9" x="4">go: 成员</tspan></text></g></g><g transform="matrix(1,0,0,1,429.32,575.82)" ed:width="94.59999999999999" ed:height="24.4" id="181" ed:parentid="177"><path fill="#fed9ad" d="M4,0L90.6,0C93.3,0,94.6,1.3,94.6,4L94.6,20.4C94.6,23.1,93.3,24.4,90.6,24.4L4,24.4C1.3,24.4,0,23.1,0,20.4L0,4C0,1.3,1.3,0,4,0z" stroke="#454545" stroke-linejoin="round"/><text class="st19"><tspan textLength="67" y="16.45" x="9" style="white-space:pre">Allocatable</tspan></text><g><path stroke-width="0.8" fill="#ffffff" d="M0,24.9L52,24.9L52,44.9L0,44.9L0,24.9z" stroke="#c8c8c8"/><text class="st18"><tspan y="38.9" x="4">go: 成员</tspan></text></g></g><g transform="matrix(1,0,0,1,483.22,467.52)" ed:width="205.8" ed:height="24.4" id="183" ed:parentid="179"><path fill="#fed9ad" d="M4,0L201.8,0C204.5,0,205.8,1.3,205.8,4L205.8,20.4C205.8,23.1,204.5,24.4,201.8,24.4L4,24.4C1.3,24.4,0,23.1,0,20.4L0,4C0,1.3,1.3,0,4,0z" stroke="#454545" stroke-linejoin="round"/><text class="st19"><tspan textLength="178" y="16.45" x="9" style="white-space:pre">kubernetes.io/cpu:16000000</tspan></text><g><path stroke-width="0.8" fill="#ffffff" d="M0,24.9L52,24.9L52,44.9L0,44.9L0,24.9z" stroke="#c8c8c8"/><text class="st18"><tspan y="38.9" x="4">go: 成员</tspan></text></g></g><g transform="matrix(1,0,0,1,483.22,521.67)" ed:width="182.6" ed:height="24.4" id="185" ed:parentid="179"><path fill="#fed9ad" d="M4,0L178.6,0C181.3,0,182.6,1.3,182.6,4L182.6,20.4C182.6,23.1,181.3,24.4,178.6,24.4L4,24.4C1.3,24.4,0,23.1,0,20.4L0,4C0,1.3,1.3,0,4,0z" stroke="#454545" stroke-linejoin="round"/><text class="st19"><tspan textLength="155" y="16.45" x="9" style="white-space:pre">nvidia.com/gpu:4000000</tspan></text><g><path stroke-width="0.8" fill="#ffffff" d="M0,24.9L52,24.9L52,44.9L0,44.9L0,24.9z" stroke="#c8c8c8"/><text class="st18"><tspan y="38.9" x="4">go: 成员</tspan></text></g></g><g transform="matrix(1,0,0,1,483.22,629.97)" ed:width="205.8" ed:height="24.4" id="187" ed:parentid="181"><path fill="#fed9ad" d="M4,0L201.8,0C204.5,0,205.8,1.3,205.8,4L205.8,20.4C205.8,23.1,204.5,24.4,201.8,24.4L4,24.4C1.3,24.4,0,23.1,0,20.4L0,4C0,1.3,1.3,0,4,0z" stroke="#454545" stroke-linejoin="round"/><text class="st19"><tspan textLength="178" y="16.45" x="9" style="white-space:pre">kubernetes.io/cpu:16000000</tspan></text><g><path stroke-width="0.8" fill="#ffffff" d="M0,24.9L52,24.9L52,44.9L0,44.9L0,24.9z" stroke="#c8c8c8"/><text class="st18"><tspan y="38.9" x="4">go: 成员</tspan></text></g></g><g transform="matrix(1,0,0,1,483.22,684.12)" ed:width="182.6" ed:height="24.4" id="189" ed:parentid="181"><path fill="#fed9ad" d="M4,0L178.6,0C181.3,0,182.6,1.3,182.6,4L182.6,20.4C182.6,23.1,181.3,24.4,178.6,24.4L4,24.4C1.3,24.4,0,23.1,0,20.4L0,4C0,1.3,1.3,0,4,0z" stroke="#454545" stroke-linejoin="round"/><text class="st19"><tspan textLength="155" y="16.45" x="9" style="white-space:pre">nvidia.com/gpu:4000000</tspan></text><g><path stroke-width="0.8" fill="#ffffff" d="M0,24.9L52,24.9L52,44.9L0,44.9L0,24.9z" stroke="#c8c8c8"/><text class="st18"><tspan y="38.9" x="4">go: 成员</tspan></text></g></g><g transform="matrix(1,0,0,1,22,344.92)" ed:width="110.7813953488372" ed:height="53.15162790697675" id="206" ed:topictype="floating" ed:layout="leftmap"><path stroke-width="2" fill="#53a2f0" d="M0,26.6C0,11.9,24.8,0,55.4,0C86,0,110.8,11.9,110.8,26.6C110.8,41.3,86,53.2,55.4,53.2C24.8,53.2,0,41.3,0,26.6z" stroke="#53a2f0" stroke-linejoin="round"/><text class="st23"><tspan textLength="84" y="31.626" x="12" style="white-space:pre">Api-server</tspan></text></g></svg>